<?xml version="1.0" encoding="UTF-8"?>
<svg id="Camada_1" data-name="Camada 1" xmlns="http://www.w3.org/2000/svg" viewBox="0 0 1153.31 313.19">
  <defs>
    <style>
      .cls-1 {
        fill: #fff;
      }
    </style>
  </defs>
  <g>
    <path d="m12.47,207.06c-7.98-13.41-14.16-36.79-3.3-50.78,16.39-21.05,49.38-19.34,62.99,4.08,11.12,19.12-3.55,60.42-29.64,40.56-1.53-1.49-1.53-2.02.26-2.07,11.2-6.83,6.71-21.82-5.07-24.7-12.84-3.14-22.44,5.67-23.27,18.19-1.07,16.25,13.77,29.52,27.04,35.52,21.12,9.56,48.88,10.02,57.2-15.87,7.87-24.49-6.42-52.78-24.19-69.14-20.73-18.72-50.7-42.58-48.95-72.85.61-10.62,7.7-19.77,16.38-25.76,14.33-9.76,33.53-15.65,50.65-11.02,8.55,2.31,23.32,6.96,28.66-3.44,2.06-6.06,4.65-4.37,4.6.29-.19,17.34-.98,35.09-1.14,52.46-.02,2.19-2.31,2.68-2.81-.36-2-11.76-4.9-24.58-12.97-33.81-16.1-15.63-40.75-16.03-56,1.05-25.23,28.15,48.59,75.11,62.44,94.09,14.39,24.4,19.68,54.18-1.67,76.52-18.94,19.82-49.03,21.85-73.22,11.38-11.54-5.05-21.61-13.61-27.99-24.33Z"/>
    <path d="m157.08,209.56c-3.47-9.1-3.86-20.42-3.5-30.03l.23-91.93c-4.81-.15-7.21-.23-12.02-.38,0-1.67,0-2.51.01-4.18,16.09,1.15,31.82-4.35,36.11-21.64.77-2.54,2.32-7.62,2.3-1.1-.03,9.42-.04,14.13-.06,23.55,6.55.18,9.82.26,16.37.44,0,2.06,0,3.09-.01,5.15-6.65-.19-9.97-.28-16.62-.48-.18,35.37-.36,70.73-.54,106.1-.35,12.5,4.29,19.42,12.71,28.09-12.83-.88-28.04-.74-34.98-13.59Z"/>
    <path d="m196.34,154.04c.06-27.53,16.36-68.67,49.56-68.55,34.22.13,49.2,45.84,49.19,73.37-.01,28.32-15.14,71.19-49.58,68.91-33.15-2.19-49.22-45.38-49.16-73.74Zm73.15,3.71c.04-16.06-1.96-65.74-23.61-67.89-4.24-.42-10.85,4.31-12.82,10.42-2.83,8.76,13.26,13.79,11.25,1.49,0-1.17-.76-4.1,1.8-2.28,19.87,15.5-3.43,43.6-21.56,26.57-1.73,9.53-2.56,19.8-2.38,29.38.32,17.21,3.14,66.47,23.35,67.96,19.8,1.46,23.94-50.87,23.98-65.65Z"/>
    <path d="m317.75,206.63c.08-30.34.15-60.69.23-91.03-.49-8.37-4.57-14.43-11.98-18.16,16.19-1.03,29.46-7.71,43.03-16-4.61,9.98-5.24,20.37-4.94,31.19,0,2.04,0,3.07-.01,5.11,8.82-18.51,23.04-41.8,45.66-43.98,38.82-3.73,36.99,74.37-2.95,65.52-14.75-2.81-18.34-21.05-14.27-33.02,2.06-4.8,3.85-3.26,5.63-.51,5.78,10.16,18.45,8.1,22.02-2.38,3.24-9.51-.22-19.17-6.87-22.89-21.85-8.6-47.51,38.01-49.27,54.99l-.17,71.83c.3,11.06,6.1,22.61,16.33,27.58-19.64-.96-39.28-2.04-58.91-3.27,10.1-3.77,16.11-14.54,16.45-24.98Z"/>
    <path d="m439.91,235.89c13.16.03,17.03,14.42,13.81,24.94-.77,3.35-1.8.56-2.56-.69-6.29-11.92-15.29,3.54-5.66,11.16,10.34,4.38,19.48-6,22.59-14.67,3.35-9.33,6.44-18.88,9.52-28.38-10.7-37.58-24.3-74.67-40.46-110.24-7.68-16.9-20-54.58-40.47-60.31,21.46-19.81,45.2.56,53.71,22.07,14.55,37.99,26.21,76.83,38.02,115.73.21-.49.31-.73.51-1.22,9.26-28.55,18.44-57.14,27.48-85.76,2.57-7.7-4.34-16.07-11-19.49,12.63.06,25.26.1,37.89.13-9.81,3.66-19.47,9.95-23.05,20.31-9.65,29.94-19.32,59.86-29.02,89.78-2.31,7.05-4.11,13.8-6.69,20.52-4.02,11.92-8.05,23.83-12.09,35.74-4.74,14.4-17.14,28.14-33.63,25.97-22.29-2.93-22.25-45.65,1.09-45.6Z"/>
    <path d="m620.17,212.95c-.02-29.85-.03-59.7-.05-89.56,0-4.2,0-6.3,0-10.5,0-13.28-2.34-20.36-6.67-20.98-2.04-.29-1.79-2.78-.26-2.47,10.94,2.25,22.59-1.22,29.18-10.6-23.75-8.37-53.05-32.81-79.09-20.27-8.93,4.57-14.18,13.79-13.31,23.79.99,11.34,12.26,24.73,23.55,18.88,8.08-4.19,11.36-18.53,3.84-25.66-1.79-1.24-2.05-2.47.26-2.47,23.15-.45,26.61,32.65,12.55,44.82-12.85,11.13-35.58,2.53-41.48-13.31-4.72-12.38-6.52-26.63-3.06-39.57,11.92-30.46,38.43-51.89,71.64-34.93,19.28,9.41,37.72,24.2,58.88,28.87,27.89,6.16,12.07-34.7.23-19.68-2.04,2.46-2.56-2.76-.52-4.61,6.65-5.85,13.6-3.99,17.66,4.89,3.35,7.32,3.36,14.43,1.57,23.31-2.36,11.68-12.26,20.35-24.03,21.64-5.88.65-14.08-.83-25.35-4.49.18,14.39.37,28.77.55,43.16.03,29.6.05,59.19.08,88.79.28,10.95,5.95,22.67,16.44,27.14-19.66.4-39.32.68-58.98.81,10.06-4.83,16.03-16.13,16.4-27.01Z"/>
    <path d="m686.5,163.07c.45-17.75,3.73-36.66,13.76-52.36,16.13-24.99,68.05-36.06,82.94-3.71,11.81,25.65,3.08,70.1-25.96,75.76-16.05,3.13-28.02-.96-42.55-11.05,4.64,24.32,22.9,42.99,48.74,31.48,10.27-3.52,19.64-10.56,23.26-21.12.51-.92,1.53-1.56,1.79-.07,3.33,25.61-17.08,49.33-41.65,54.03-41.57,7.95-61.17-40.32-60.34-72.96Zm75.99-44.77c-3.46-22.37-31.39-34.77-41.75-9.98-6.39,16.19-8.32,34.56-7.34,51.8,8.56,13.24,22.99,21.17,36.74,10.63,14.65-11.22,14.81-36.63,12.36-52.46Z"/>
    <path d="m812.37,206.86c-.09-37.98-.18-75.96-.28-113.93-.14-23.17,3.38-51.19,29.02-59.44,16.24-5.23,44.46.19,45.6,21.26.71,13.11-11.19,25.97-24.5,23-15.68-3.49-13.65-23.36-4.18-31.88,2.3-1.79,1.79,1.17,1.54,2.36-1.8,13.08,16.13,8.08,10.48-4.8-2.06-5.29-6.67-8.23-13.58-8.2-8.7.03-14.36,5.12-16.85,15.23-6.38,25.96-1.44,57.01-1.32,83.66.06,24.01.12,48.02.19,72.04.34,10.41,6.36,21.14,16.45,24.87-19.62,1.26-39.26,2.4-58.9,3.4,10.22-4.97,16.03-16.5,16.33-27.55Z"/>
    <path d="m873.8,203.55c-.1-37.29-.2-74.58-.3-111.87-.15-22.99,3.58-50.37,29-58.38,15.9-5.01,44.45-.18,45.59,20.72.72,13.09-11.4,25.33-24.49,22.56-15.64-3.31-13.67-22.83-4.18-31.18,2.3-1.76,1.79,1.14,1.54,2.3-2.01,13.62,15.89,9.08,10.48-4.71-2.06-5.17-6.67-8.04-13.58-8.01-8.7.04-14.36,5.03-16.84,14.94-6.36,25.36-1.46,55.93-1.31,81.98.07,23.53.13,47.06.2,70.59.34,10.25,6.44,20.68,16.44,24.12-19.61,1.54-39.22,2.96-58.85,4.23,10.11-4.97,15.99-16.31,16.31-27.3Z"/>
    <path d="m916.66,155.28c.58-17.06,3.78-34.93,13.67-49.72,15.8-23.36,67.42-35.59,82.84-5.28,12.13,23.84,2.46,65.19-25.9,70.71-16.24,3.16-27.7.43-42.46-8.6,4.76,25,24.29,37.82,48.64,27.22,9.93-3.61,19.37-10.28,23.2-20.5.51-.87,1.53-1.5,1.79-.14,3.46,24.98-18.76,46.56-41.52,51.91-39.37,9.26-61.38-32.74-60.27-65.59Zm75.83-44.11c-3.99-21.18-32.12-32.42-41.7-8.31-6.31,15.12-8.27,32.48-7.28,48.7,28.13,39.61,54.44-11.41,48.99-40.39Z"/>
    <path d="m1043.77,190.98l-.17-83.22c-.53-7.62-4.63-12.9-12.05-15.92,15.94-1.87,29.32-8.59,42.91-16.67-4.44,7.95-5.57,19.18-4.81,28.1,0,1.83,0,2.74,0,4.57,9.21-18.13,23.6-38.55,45.43-41.04,38.25-4.36,35.67,60.02-2.77,56.56-13.58-1.98-18.93-15.48-14.32-27.56,2.04-4.32,3.83-3.07,5.62-.79,7.67,9.63,18.55,5.11,21.96-3.38,3.36-8.37-.26-16.3-6.91-19.2-21.85-6.48-46.24,33.77-48.98,51.27.04,21.41.07,42.82.11,64.22-.15,9.09,7.2,20,16.35,22.02-19.54,2.31-39.09,4.49-58.66,6.52,9.43-4.76,15.82-14.96,16.28-25.47Z"/>
  </g>
  <g>
    <path class="cls-1" d="m18.97,212.01c-7.98-13.41-14.16-36.79-3.3-50.78,16.39-21.05,49.38-19.34,62.99,4.08,11.12,19.12-3.55,60.42-29.64,40.56-1.53-1.49-1.53-2.02.26-2.07,11.2-6.83,6.71-21.82-5.07-24.7-12.84-3.14-22.44,5.67-23.27,18.19-1.07,16.25,13.77,29.52,27.04,35.52,21.12,9.56,48.88,10.02,57.2-15.87,7.87-24.49-6.42-52.78-24.19-69.14-20.73-18.72-50.7-42.58-48.95-72.85.61-10.62,7.7-19.77,16.38-25.76,14.33-9.76,33.53-15.65,50.65-11.02,8.55,2.31,23.32,6.96,28.66-3.44,2.06-6.06,4.65-4.37,4.6.29-.19,17.34-.98,35.09-1.14,52.46-.02,2.19-2.31,2.68-2.81-.36-2-11.76-4.9-24.58-12.97-33.81-16.1-15.63-40.75-16.03-56,1.05-25.23,28.15,48.59,75.11,62.44,94.09,14.39,24.4,19.68,54.18-1.67,76.52-18.94,19.82-49.03,21.85-73.22,11.38-11.54-5.05-21.61-13.61-27.99-24.33Z"/>
    <path class="cls-1" d="m163.59,214.5c-3.47-9.1-3.86-20.42-3.5-30.03l.23-91.93c-4.81-.15-7.21-.23-12.02-.38,0-1.67,0-2.51.01-4.18,16.09,1.15,31.82-4.35,36.11-21.64.77-2.54,2.32-7.62,2.3-1.1-.03,9.42-.04,14.13-.06,23.55,6.55.18,9.82.26,16.37.44,0,2.06,0,3.09-.01,5.15-6.65-.19-9.97-.28-16.62-.48-.18,35.37-.36,70.73-.54,106.1-.35,12.5,4.29,19.42,12.71,28.09-12.83-.88-28.04-.74-34.98-13.59Z"/>
    <path class="cls-1" d="m202.84,158.98c.06-27.53,16.36-68.67,49.56-68.55,34.22.13,49.2,45.84,49.19,73.37-.01,28.32-15.14,71.19-49.58,68.91-33.15-2.19-49.22-45.38-49.16-73.74Zm73.15,3.71c.04-16.06-1.96-65.74-23.61-67.89-4.24-.42-10.85,4.31-12.82,10.42-2.83,8.76,13.26,13.79,11.25,1.49,0-1.17-.76-4.1,1.8-2.28,19.87,15.5-3.43,43.6-21.56,26.57-1.73,9.53-2.56,19.8-2.38,29.38.32,17.21,3.14,66.47,23.35,67.96,19.8,1.46,23.94-50.87,23.98-65.65Z"/>
    <path class="cls-1" d="m324.25,211.58c.08-30.34.15-60.69.23-91.03-.49-8.37-4.57-14.43-11.98-18.16,16.19-1.03,29.46-7.71,43.03-16-4.61,9.98-5.24,20.37-4.94,31.19,0,2.04,0,3.07-.01,5.11,8.82-18.51,23.04-41.8,45.66-43.98,38.82-3.73,36.99,74.37-2.95,65.52-14.75-2.81-18.34-21.05-14.27-33.02,2.06-4.8,3.85-3.26,5.63-.51,5.78,10.16,18.45,8.1,22.02-2.38,3.24-9.51-.22-19.17-6.87-22.89-21.85-8.6-47.51,38.01-49.27,54.99l-.17,71.83c.3,11.06,6.1,22.61,16.33,27.58-19.64-.96-39.28-2.04-58.91-3.27,10.1-3.77,16.11-14.54,16.45-24.98Z"/>
    <path class="cls-1" d="m446.41,240.84c13.16.03,17.03,14.42,13.81,24.94-.77,3.35-1.8.56-2.56-.69-6.29-11.92-15.29,3.54-5.66,11.16,10.34,4.38,19.48-6,22.59-14.67,3.35-9.33,6.44-18.88,9.52-28.38-10.7-37.58-24.3-74.67-40.46-110.24-7.68-16.9-20-54.58-40.47-60.31,21.46-19.81,45.2.56,53.71,22.07,14.55,37.99,26.21,76.83,38.02,115.73.21-.49.31-.73.51-1.22,9.26-28.55,18.44-57.14,27.48-85.76,2.57-7.7-4.34-16.07-11-19.49,12.63.06,25.26.1,37.89.13-9.81,3.66-19.47,9.95-23.05,20.31-9.65,29.94-19.32,59.86-29.02,89.78-2.31,7.05-4.11,13.8-6.69,20.52-4.02,11.92-8.05,23.83-12.09,35.74-4.74,14.4-17.14,28.14-33.63,25.97-22.29-2.93-22.25-45.65,1.09-45.6Z"/>
    <path class="cls-1" d="m626.67,217.9c-.02-29.85-.03-59.7-.05-89.56,0-4.2,0-6.3,0-10.5,0-13.28-2.34-20.36-6.67-20.98-2.04-.29-1.79-2.78-.26-2.47,10.94,2.25,22.59-1.22,29.18-10.6-23.75-8.37-53.05-32.81-79.09-20.27-8.93,4.57-14.18,13.79-13.31,23.79.99,11.34,12.26,24.73,23.55,18.88,8.08-4.19,11.36-18.53,3.84-25.66-1.79-1.24-2.05-2.47.26-2.47,23.15-.45,26.61,32.65,12.55,44.82-12.85,11.13-35.58,2.53-41.48-13.31-4.72-12.38-6.52-26.63-3.06-39.57,11.92-30.46,38.43-51.89,71.64-34.93,19.28,9.41,37.72,24.2,58.88,28.87,27.89,6.16,12.07-34.7.23-19.68-2.04,2.46-2.56-2.76-.52-4.61,6.65-5.85,13.6-3.99,17.66,4.89,3.35,7.32,3.36,14.43,1.57,23.31-2.36,11.68-12.26,20.35-24.03,21.64-5.88.65-14.08-.83-25.35-4.49.18,14.39.37,28.77.55,43.16.03,29.6.05,59.19.08,88.79.28,10.95,5.95,22.67,16.44,27.14-19.66.4-39.32.68-58.98.81,10.06-4.83,16.03-16.13,16.4-27.01Z"/>
    <path class="cls-1" d="m693,168.01c.45-17.75,3.73-36.66,13.76-52.36,16.13-24.99,68.05-36.06,82.94-3.71,11.81,25.65,3.08,70.1-25.96,75.76-16.05,3.13-28.02-.96-42.55-11.05,4.64,24.32,22.9,42.99,48.74,31.48,10.27-3.52,19.64-10.56,23.26-21.12.51-.92,1.53-1.56,1.79-.07,3.33,25.61-17.08,49.33-41.65,54.03-41.57,7.95-61.17-40.32-60.34-72.96Zm75.99-44.78c-3.46-22.37-31.39-34.77-41.75-9.98-6.39,16.19-8.32,34.56-7.34,51.8,8.56,13.24,22.99,21.17,36.74,10.63,14.65-11.22,14.81-36.63,12.36-52.46Z"/>
    <path class="cls-1" d="m818.87,211.8c-.09-37.98-.18-75.96-.28-113.93-.14-23.17,3.38-51.19,29.02-59.44,16.24-5.23,44.46.19,45.6,21.26.71,13.11-11.19,25.97-24.5,23-15.68-3.49-13.65-23.36-4.18-31.88,2.3-1.79,1.79,1.17,1.54,2.36-1.8,13.08,16.13,8.08,10.48-4.8-2.06-5.29-6.67-8.23-13.58-8.2-8.7.03-14.36,5.12-16.85,15.23-6.38,25.96-1.44,57.01-1.32,83.66.06,24.01.12,48.02.19,72.04.34,10.41,6.36,21.14,16.45,24.87-19.62,1.26-39.26,2.4-58.9,3.4,10.22-4.97,16.03-16.5,16.33-27.55Z"/>
    <path class="cls-1" d="m880.3,208.49c-.1-37.29-.2-74.58-.3-111.87-.15-22.99,3.58-50.37,29-58.38,15.9-5.01,44.45-.18,45.59,20.72.72,13.09-11.4,25.33-24.49,22.56-15.64-3.31-13.67-22.83-4.18-31.18,2.3-1.76,1.79,1.14,1.54,2.3-2.01,13.62,15.89,9.08,10.48-4.71-2.06-5.17-6.67-8.04-13.58-8.01-8.7.04-14.36,5.03-16.84,14.94-6.36,25.36-1.46,55.93-1.31,81.98.07,23.53.13,47.06.2,70.59.34,10.25,6.44,20.68,16.44,24.12-19.61,1.54-39.22,2.96-58.85,4.23,10.11-4.97,15.99-16.31,16.31-27.3Z"/>
    <path class="cls-1" d="m923.16,160.22c.58-17.06,3.78-34.93,13.67-49.72,15.8-23.36,67.42-35.59,82.84-5.28,12.13,23.84,2.46,65.19-25.9,70.71-16.24,3.16-27.7.43-42.46-8.6,4.76,25,24.29,37.82,48.64,27.22,9.93-3.61,19.37-10.28,23.2-20.5.51-.87,1.53-1.5,1.79-.14,3.46,24.98-18.76,46.56-41.52,51.91-39.37,9.26-61.38-32.74-60.27-65.59Zm75.83-44.11c-3.99-21.18-32.12-32.42-41.7-8.31-6.31,15.12-8.27,32.48-7.28,48.7,28.13,39.61,54.44-11.41,48.99-40.39Z"/>
    <path class="cls-1" d="m1050.27,195.93l-.17-83.22c-.53-7.62-4.63-12.9-12.05-15.92,15.94-1.87,29.32-8.59,42.91-16.67-4.44,7.95-5.57,19.18-4.81,28.1,0,1.83,0,2.74,0,4.57,9.21-18.13,23.6-38.55,45.43-41.04,38.25-4.36,35.67,60.02-2.77,56.56-13.58-1.98-18.93-15.48-14.32-27.56,2.04-4.32,3.83-3.07,5.62-.79,7.67,9.63,18.55,5.11,21.96-3.38,3.36-8.37-.26-16.3-6.91-19.2-21.85-6.48-46.24,33.77-48.98,51.27.04,21.41.07,42.82.11,64.22-.15,9.09,7.2,20,16.35,22.02-19.54,2.31-39.09,4.49-58.66,6.52,9.43-4.76,15.82-14.96,16.28-25.47Z"/>
  </g>
</svg>